<svg width="140" height="55" viewBox="0 0 140 55" fill="none" xmlns="http://www.w3.org/2000/svg">
<path d="M79.8229 15.7231C79.009 15.7231 78.403 16.0064 78.0051 16.5729C77.6072 17.1394 77.3992 17.883 77.3992 18.8124V22.9639H74.668V13.3774H77.3992V14.6432C77.7519 14.2537 78.195 13.9173 78.7196 13.6429C79.2441 13.3685 79.7867 13.2269 80.3294 13.218L80.3474 15.732H79.8229V15.7231Z" fill="white"/>
<path d="M90.2964 21.5738C89.1931 22.5917 87.8908 23.1051 86.4076 23.1051C84.9154 23.1051 83.6945 22.6537 82.7178 21.7597C81.741 20.8656 81.2617 19.6618 81.2617 18.1481C81.2617 16.6433 81.7591 15.4394 82.7449 14.5454C83.7307 13.6513 84.9063 13.2087 86.2539 13.2087C87.6014 13.2087 88.7499 13.6071 89.6905 14.4037C90.631 15.2004 91.1013 16.298 91.1013 17.6878V19.1129H83.9658C84.0472 19.6352 84.3275 20.069 84.8069 20.3965C85.2771 20.7328 85.8107 20.8922 86.4076 20.8922C87.3663 20.8922 88.1531 20.5735 88.7771 19.945L90.2964 21.5738ZM87.6737 15.882C87.2939 15.5722 86.8417 15.4217 86.2991 15.4217C85.7565 15.4217 85.2591 15.581 84.8159 15.8997C84.3637 16.2184 84.1015 16.6521 84.0291 17.2009H88.3249C88.2706 16.6344 88.0536 16.1918 87.6737 15.882Z" fill="white"/>
<path d="M100.089 19.9816C100.089 20.9287 99.7362 21.6811 99.0217 22.2565C98.3163 22.823 97.4119 23.1152 96.3176 23.1152C95.5851 23.1152 94.8345 22.9912 94.0386 22.7345C93.2518 22.4778 92.5374 22.106 91.9043 21.6015L93.1071 19.9285C94.1291 20.6986 95.2143 21.0881 96.3719 21.0881C96.7246 21.0881 97.005 21.0173 97.213 20.8845C97.421 20.7517 97.5205 20.5658 97.5205 20.3445C97.5205 20.1232 97.3758 19.9108 97.0954 19.7249C96.806 19.5301 96.399 19.3531 95.8564 19.1938C95.3138 19.0256 94.9068 18.884 94.6174 18.7689C94.328 18.6538 94.0024 18.4768 93.6407 18.2555C92.8991 17.804 92.5283 17.1313 92.5283 16.2461C92.5283 15.3609 92.8901 14.635 93.6226 14.0774C94.3551 13.5197 95.2957 13.2365 96.4443 13.2365C97.6019 13.2365 98.7504 13.6171 99.908 14.3783L98.8861 16.1576C98.0359 15.5911 97.1858 15.2989 96.3448 15.2989C95.5037 15.2989 95.0786 15.5202 95.0786 15.9717C95.0786 16.2195 95.2143 16.4143 95.4766 16.5559C95.7479 16.6975 96.191 16.8657 96.806 17.0516C97.43 17.2464 97.8641 17.388 98.1264 17.4854C98.3887 17.5827 98.6961 17.7421 99.0669 17.9545C99.7543 18.3617 100.089 19.0344 100.089 19.9816Z" fill="white"/>
<path d="M108.166 18.5472V13.3777H110.916V22.9731H108.166V21.7073C107.488 22.6456 106.611 23.1148 105.535 23.1148C104.458 23.1148 103.554 22.7872 102.831 22.1233C102.107 21.4595 101.736 20.4857 101.736 19.1934V13.3777H104.486V18.6003C104.486 20.0786 105.037 20.8133 106.141 20.8133C106.683 20.8133 107.163 20.6185 107.56 20.2379C107.958 19.8396 108.166 19.2819 108.166 18.5472Z" fill="white"/>
<path d="M122.148 17.7944V22.9639H119.399V17.7236C119.399 16.9624 119.281 16.4047 119.046 16.0506C118.811 15.6965 118.431 15.5195 117.897 15.5195C117.373 15.5195 116.903 15.7142 116.496 16.0949C116.089 16.4844 115.881 17.0509 115.881 17.7944V22.9639H113.149V13.3774H115.881V14.4661C116.631 13.6341 117.499 13.218 118.467 13.218C119.091 13.218 119.652 13.3951 120.149 13.7491C120.656 14.1032 121.036 14.5369 121.289 15.0504C121.669 14.4661 122.175 14.0147 122.808 13.696C123.441 13.3774 124.083 13.218 124.725 13.218C125.883 13.218 126.805 13.5544 127.511 14.2271C128.216 14.8999 128.569 15.8736 128.569 17.1394V22.9728H125.82V17.7325C125.82 16.2542 125.268 15.5195 124.165 15.5195C123.622 15.5195 123.143 15.7142 122.745 16.0949C122.347 16.4755 122.148 17.042 122.148 17.7944Z" fill="white"/>
<path d="M139.196 21.5738C138.093 22.5917 136.79 23.1051 135.307 23.1051C133.815 23.1051 132.594 22.6537 131.617 21.7597C130.649 20.8656 130.161 19.6618 130.161 18.1481C130.161 16.6433 130.659 15.4394 131.644 14.5454C132.63 13.6513 133.806 13.2087 135.153 13.2087C136.501 13.2087 137.649 13.6071 138.59 14.4037C139.53 15.2004 140.001 16.298 140.001 17.6878V19.1129H132.865C132.947 19.6352 133.227 20.069 133.706 20.3965C134.177 20.7328 134.71 20.8922 135.307 20.8922C136.266 20.8922 137.052 20.5735 137.677 19.945L139.196 21.5738ZM136.573 15.882C136.193 15.5722 135.741 15.4217 135.199 15.4217C134.656 15.4217 134.158 15.581 133.715 15.8997C133.263 16.2184 133.001 16.6521 132.929 17.2009H137.224C137.17 16.6344 136.953 16.1918 136.573 15.882Z" fill="white"/>
<path d="M79.7682 38.0865H76.9465L73.6094 28.4911H76.431L78.3393 34.2891L80.2475 28.4911H82.8883L84.7965 34.2891L86.7138 28.4911H89.5535L86.2164 38.0865H83.3766L81.5769 32.8639L79.7682 38.0865Z" fill="white"/>
<path d="M95.901 30.8456C95.0871 30.8456 94.4812 31.1289 94.0832 31.6954C93.6853 32.2619 93.4773 33.0055 93.4773 33.9349V38.0864H90.7461V28.491H93.4773V29.7568C93.83 29.3673 94.2732 29.031 94.7977 28.7566C95.3222 28.4821 95.8649 28.3405 96.4075 28.3317L96.4256 30.8456H95.901Z" fill="white"/>
<path d="M98.1204 27.2689C97.8129 26.9679 97.6592 26.5962 97.6592 26.1536C97.6592 25.711 97.8129 25.3392 98.1204 25.0382C98.4279 24.7373 98.8077 24.5868 99.2599 24.5868C99.7121 24.5868 100.092 24.7373 100.399 25.0382C100.707 25.3392 100.861 25.711 100.861 26.1536C100.861 26.5962 100.707 26.9679 100.399 27.2689C100.092 27.5699 99.7121 27.7204 99.2599 27.7204C98.8077 27.7204 98.4279 27.5699 98.1204 27.2689ZM100.626 38.0859H97.8943V28.4905H100.626V38.0859Z" fill="white"/>
<path d="M106.121 30.4115V34.7047C106.121 35.0764 106.22 35.3597 106.41 35.5721C106.6 35.7757 106.835 35.882 107.097 35.882C107.604 35.882 108.038 35.6518 108.391 35.2004L109.413 37.077C108.563 37.8382 107.667 38.2189 106.727 38.2189C105.786 38.2189 104.99 37.9179 104.339 37.3071C103.688 36.6963 103.362 35.8731 103.362 34.8286V30.4115H102.214V28.4818H103.362V25.6138H106.112V28.4818H108.481V30.4115H106.121Z" fill="white"/>
<path d="M110.76 27.2689C110.453 26.9679 110.299 26.5962 110.299 26.1536C110.299 25.711 110.453 25.3392 110.76 25.0382C111.068 24.7373 111.447 24.5868 111.9 24.5868C112.352 24.5868 112.732 24.7373 113.039 25.0382C113.347 25.3392 113.5 25.711 113.5 26.1536C113.5 26.5962 113.347 26.9679 113.039 27.2689C112.732 27.5699 112.352 27.7204 111.9 27.7204C111.447 27.7204 111.068 27.5699 110.76 27.2689ZM113.256 38.0859H110.525V28.4905H113.256V38.0859Z" fill="white"/>
<path d="M118.23 32.731V38.0776H115.499V28.491H118.23V29.5621C119.053 28.7389 119.985 28.3317 121.016 28.3317C122.047 28.3317 122.915 28.6857 123.611 29.4027C124.308 30.1197 124.66 31.0669 124.66 32.2531V38.0864H121.929V32.6691C121.929 31.1997 121.377 30.4561 120.274 30.4561C119.731 30.4561 119.252 30.6509 118.845 31.0315C118.438 31.421 118.23 31.9875 118.23 32.731Z" fill="white"/>
<path d="M134.039 36.4565C133.18 37.3948 132.104 37.864 130.82 37.864C129.536 37.864 128.459 37.4391 127.582 36.5893C126.705 35.7395 126.262 34.6065 126.262 33.1813C126.262 31.765 126.714 30.5966 127.618 29.6848C128.523 28.7731 129.554 28.3217 130.72 28.3217C131.887 28.3217 132.855 28.7908 133.614 29.7291V28.4633H136.345V36.8283C136.345 37.687 136.192 38.4394 135.893 39.1121C135.586 39.776 135.179 40.2983 134.672 40.6789C133.669 41.4667 132.475 41.8562 131.1 41.8562C130.368 41.8562 129.626 41.7411 128.866 41.511C128.107 41.2808 127.446 40.9533 126.877 40.5196L127.935 38.5013C128.83 39.1652 129.78 39.5016 130.784 39.5016C131.787 39.5016 132.574 39.2537 133.162 38.7757C133.75 38.2889 134.039 37.5188 134.039 36.4565ZM133.66 33.084C133.66 32.3139 133.442 31.7119 132.999 31.2782C132.565 30.8356 132.023 30.6143 131.38 30.6143C130.738 30.6143 130.178 30.8356 129.716 31.2782C129.246 31.7208 129.011 32.3139 129.011 33.0751C129.011 33.8364 129.237 34.4472 129.698 34.9163C130.151 35.3855 130.711 35.6245 131.362 35.6245C132.023 35.6245 132.565 35.3943 132.999 34.9252C133.442 34.4649 133.66 33.8452 133.66 33.084Z" fill="white"/>
<path d="M82.0479 50.4124C82.0479 51.3595 81.6952 52.1119 80.9807 52.6873C80.2753 53.2538 79.3709 53.5459 78.2766 53.5459C77.5441 53.5459 76.7935 53.422 75.9976 53.1653C75.2108 52.9086 74.4963 52.5368 73.8633 52.0323L75.0661 50.3593C76.088 51.1294 77.1733 51.5189 78.3309 51.5189C78.6836 51.5189 78.964 51.448 79.172 51.3153C79.38 51.1825 79.4794 50.9966 79.4794 50.7753C79.4794 50.554 79.3347 50.3416 79.0544 50.1557C78.765 49.9609 78.358 49.7839 77.8154 49.6246C77.2728 49.4652 76.8658 49.3147 76.5764 49.1997C76.287 49.0846 75.9614 48.9076 75.5997 48.6863C74.8581 48.2348 74.4873 47.5621 74.4873 46.6769C74.4873 45.7917 74.8491 45.0658 75.5816 44.5082C76.3141 43.9505 77.2547 43.6672 78.4032 43.6672C79.5608 43.6672 80.7094 44.0479 81.867 44.8091L80.845 46.5884C79.9949 46.0218 79.1448 45.7297 78.3038 45.7297C77.4627 45.7297 77.0376 45.951 77.0376 46.4025C77.0376 46.6503 77.1733 46.8451 77.4356 46.9867C77.7069 47.1283 78.15 47.2965 78.765 47.4824C79.389 47.6771 79.8231 47.8188 80.0854 47.9161C80.3476 48.0135 80.6551 48.1728 81.0259 48.3853C81.7042 48.7925 82.0479 49.4652 82.0479 50.4124Z" fill="white"/>
<path d="M92.2759 52.0054C91.1726 53.0234 89.8703 53.5368 88.3871 53.5368C86.8949 53.5368 85.674 53.0853 84.6973 52.1913C83.7205 51.2973 83.2412 50.0934 83.2412 48.5797C83.2412 47.0749 83.7386 45.8711 84.7244 44.977C85.7102 44.083 86.8858 43.6404 88.2334 43.6404C89.5809 43.6404 90.7294 44.0387 91.67 44.8354C92.6105 45.6321 93.0808 46.7297 93.0808 48.1194V49.5446H85.9453C86.0267 50.0668 86.307 50.5006 86.7864 50.8281C87.2566 51.1645 87.7902 51.3238 88.3871 51.3238C89.3457 51.3238 90.1325 51.0051 90.7566 50.3767L92.2759 52.0054ZM89.6532 46.3136C89.2734 46.0038 88.8212 45.8534 88.2786 45.8534C87.736 45.8534 87.2385 46.0127 86.7954 46.3314C86.3432 46.65 86.0809 47.0838 86.0086 47.6326H90.3044C90.2501 47.0661 90.0331 46.6235 89.6532 46.3136Z" fill="white"/>
<path d="M99.8532 46.1543C99.0392 46.1543 98.4333 46.4376 98.0354 47.0041C97.6375 47.5706 97.4294 48.3142 97.4294 49.2436V53.3952H94.6982V43.7997H97.4294V45.0655C97.7821 44.6761 98.2253 44.3397 98.7498 44.0653C99.2744 43.7909 99.817 43.6492 100.36 43.6404L100.378 46.1543H99.8532Z" fill="white"/>
<path d="M104.484 53.3955L100.604 43.7823H103.444L105.886 49.8282L108.328 43.7823H111.168L107.288 53.3955H104.484Z" fill="white"/>
<path d="M112.398 42.5791C112.09 42.2781 111.937 41.9064 111.937 41.4638C111.937 41.0212 112.09 40.6494 112.398 40.3484C112.705 40.0475 113.085 39.897 113.537 39.897C113.989 39.897 114.369 40.0475 114.677 40.3484C114.984 40.6494 115.138 41.0212 115.138 41.4638C115.138 41.9064 114.984 42.2781 114.677 42.5791C114.369 42.8801 113.989 43.0305 113.537 43.0305C113.085 43.0305 112.705 42.8889 112.398 42.5791ZM114.903 53.3961H112.172V43.8007H114.903V53.3961Z" fill="white"/>
<path d="M121.841 51.1655C122.754 51.1655 123.568 50.7229 124.3 49.8289L125.919 51.6081C124.653 52.8916 123.288 53.529 121.823 53.529C120.357 53.529 119.109 53.0775 118.096 52.1658C117.084 51.254 116.577 50.0679 116.577 48.5985C116.577 47.1291 117.093 45.9341 118.115 45.0135C119.137 44.0929 120.357 43.6326 121.768 43.6326C122.474 43.6326 123.188 43.7742 123.912 44.0575C124.635 44.3407 125.268 44.7656 125.811 45.3233L124.391 47.1468C124.074 46.775 123.686 46.4917 123.233 46.2881C122.781 46.0845 122.329 45.9872 121.877 45.9872C121.162 45.9872 120.547 46.2173 120.032 46.6776C119.516 47.1379 119.254 47.7753 119.254 48.5808C119.254 49.3951 119.516 50.0236 120.032 50.4751C120.547 50.9442 121.153 51.1655 121.841 51.1655Z" fill="white"/>
<path d="M135.884 52.0054C134.781 53.0234 133.479 53.5368 131.995 53.5368C130.503 53.5368 129.282 53.0853 128.306 52.1913C127.338 51.2973 126.85 50.0934 126.85 48.5797C126.85 47.0749 127.347 45.8711 128.333 44.977C129.319 44.083 130.494 43.6404 131.842 43.6404C133.189 43.6404 134.338 44.0387 135.278 44.8354C136.219 45.6321 136.689 46.7297 136.689 48.1194V49.5446H129.545C129.626 50.0668 129.906 50.5006 130.386 50.8281C130.856 51.1645 131.39 51.3238 131.986 51.3238C132.945 51.3238 133.732 51.0051 134.356 50.3767L135.884 52.0054ZM133.262 46.3136C132.882 46.0038 132.43 45.8534 131.887 45.8534C131.344 45.8534 130.847 46.0127 130.404 46.3314C129.952 46.65 129.689 47.0838 129.617 47.6326H133.913C133.859 47.0661 133.632 46.6235 133.262 46.3136Z" fill="white"/>
<path d="M45.9914 30.2692L52.0064 33.4123C51.9965 33.5321 51.9767 33.6418 51.9767 33.7615C51.9767 35.6873 53.5226 37.2439 55.4351 37.2439C57.3476 37.2439 58.8935 35.6873 58.8935 33.7615C58.8935 31.8358 57.3476 30.2792 55.4351 30.2792C54.6225 30.2792 53.8793 30.5785 53.2847 31.0475L47.2301 27.8845L44.3762 24.2624L36.8847 20.3311L24.7655 16.1503L18.919 13.087C18.919 13.087 17.8587 4.64557 10.6645 0.873859C3.47029 -2.89785 3.8964 6.76091 3.8964 6.76091C3.8964 6.76091 -4.21938 11.9196 2.97482 15.7013C10.169 19.473 17.6506 15.5217 17.6506 15.5217L23.4971 18.5949L33.8921 26.1184L41.3836 30.0497L45.9914 30.2692ZM57.8331 41.8937C53.5622 43.1908 49.0931 40.8859 47.5472 36.745L42.8105 34.1806C42.8403 35.2583 42.9691 36.3558 43.2961 37.4335C45.3077 44.1587 52.383 47.9803 59.0619 45.9547C65.7408 43.9292 69.5361 36.8049 67.5245 30.0796C65.5129 23.3544 58.4376 19.5328 51.7587 21.5584C50.6786 21.8877 49.7075 22.3866 48.7958 22.9553L53.5325 25.5197C57.8133 24.5318 62.1933 27.0164 63.4815 31.3069C64.8193 35.7871 62.2924 40.5366 57.8331 41.8937ZM49.321 13.4263C45.9617 14.444 43.1177 16.2999 40.7593 18.6148L44.614 20.7003C46.3085 19.2834 48.2904 18.1758 50.5299 17.4973C57.9025 15.2622 65.612 18.3654 69.5758 24.5817V18.0661C64.2742 13.2167 56.6539 11.2012 49.321 13.4263ZM60.2709 50.0258C51.3623 52.7298 41.9385 47.631 39.2531 38.6608C38.5792 36.4057 38.4009 34.1208 38.6387 31.9256L34.7839 29.8402C34.1695 33.093 34.2092 36.5055 35.2199 39.8881C38.5792 51.1034 50.3615 57.4694 61.4996 54.0968C64.6112 53.1489 67.3462 51.5424 69.5956 49.467V42.9314C67.4849 46.2142 64.2742 48.8085 60.2709 50.0258Z" fill="url(#paint0_linear)"/>
<defs>
<linearGradient id="paint0_linear" x1="0.00201097" y1="27.4902" x2="69.5826" y2="27.4902" gradientUnits="userSpaceOnUse">
<stop offset="0.00864337" stop-color="#73AAF9"/>
<stop offset="0.9944" stop-color="#86EDFC"/>
</linearGradient>
</defs>
</svg>
